<svg width="1048" height="1224" viewBox="0 0 1048 1224" fill="none" xmlns="http://www.w3.org/2000/svg">
<path d="M1277.75 432.441C1277.75 432.441 1273.8 170.685 999.614 236.537C620.461 327.598 1327.14 451.751 968.138 746.456C540.416 1097.57 1081.34 196.206 578.227 379.403C13.1654 585.155 1262.47 775.886 699.838 977.209C247.731 1138.98 207.791 739.163 207.791 739.163" stroke="#6D68A5" stroke-linecap="round"/>
<path d="M138.456 868.145C138.456 868.145 90.4462 1098.91 406.614 985.784C843.825 829.356 87.741 860.947 543.44 528.404C1086.36 132.211 308.226 1037.82 900.863 775.077C1566.47 479.989 224.079 561.27 886.105 270.587C1418.09 37.0046 1382.21 382.699 1382.21 382.699" stroke="#6D68A5" stroke-width="2" stroke-linecap="round"/>
<path d="M175.366 842.189C175.366 842.189 129.675 1066.51 435.601 957.591C858.648 806.976 126.203 835.005 566.534 513.129C1091.15 129.645 340.459 1007.86 913.718 754.377C1557.56 469.688 257.227 543.96 897.615 263.544C1412.21 38.2113 1378.69 374.383 1378.69 374.383" stroke="#6D68A5" stroke-width="2" stroke-linecap="round"/>
</svg>
