<svg width="187" height="160" viewBox="0 0 187 160" fill="none" xmlns="http://www.w3.org/2000/svg">
<path d="M176.991 99.1648L186.416 108.59C184.78 118.165 182.801 123.925 176.991 135.041C159.343 150.824 150.379 154.372 134.73 158.756C59.7077 164.739 14.0272 139.298 0.649567 85.1791C-1.17465 62.0723 3.79416 52.5508 14.0272 45.9584C15.4651 33.6923 15.6947 27.0841 10.3787 17.987L7.33838 0.960938H14.0272L26.7967 13.7305C27.7328 29.3373 28.3835 37.5802 31.0532 45.9584C58.4237 104.253 85.9313 120.276 149.019 106.158L176.991 99.1648Z" fill="#DCD6F7"/>
<path d="M13.9551 17.3796L26.4924 15.9897V13.5L13.9551 1H7.50024L10.0744 14.9473L13.9551 17.3796Z" fill="#8B899C"/>
</svg>
