<svg width="186" height="181" viewBox="0 0 186 181" fill="none" xmlns="http://www.w3.org/2000/svg">
<path d="M164 102H22C26.0141 120.424 27.5194 125.946 40.5654 135.362C53.6113 144.778 137.406 148.806 148.947 135.362C160.488 121.918 160.989 116.938 164 102Z" fill="#8B899C"/>
<path d="M22 56.0851C38.82 -14.4485 141.367 -22.8244 163.613 56.0851H22Z" fill="#8B899C"/>
<rect x="14" y="61" width="157.348" height="29.2993" fill="#4E4C67"/>
<rect x="5" y="55.6719" width="175.796" height="5.42579" fill="#9C98C9"/>
<rect y="90" width="185.562" height="7.59611" fill="#DCD6F7"/>
<rect y="97" width="185.562" height="5.42579" fill="#4E4C67"/>
<path d="M111.587 8.87787L117.875 12.1981L107.915 14.9671L111.587 8.87787Z" fill="#DCD6F7"/>
<path d="M83.4742 2.56474L86.0429 9.19522L76.7086 4.75296L83.4742 2.56474Z" fill="#DCD6F7"/>
<path d="M89.9332 8.86629L96.1685 12.2843L86.1667 14.8975L89.9332 8.86629Z" fill="#DCD6F7"/>
<path d="M102.26 4.84865L101.463 11.9145L95.2507 3.65172L102.26 4.84865Z" fill="#DCD6F7"/>
<path d="M68.4286 15.7585L75.3911 17.2026L66.5915 22.6277L68.4286 15.7585Z" fill="#DCD6F7"/>
<path d="M99.7717 20.5211L101.674 27.3726L92.8233 22.0316L99.7717 20.5211Z" fill="#DCD6F7"/>
<path d="M114.197 22.2869L115.962 29.1751L107.22 23.6579L114.197 22.2869Z" fill="#DCD6F7"/>
<path d="M45.3575 28.2281L52.3285 29.6307L43.5615 35.1083L45.3575 28.2281Z" fill="#DCD6F7"/>
<path d="M53.4526 16.1583L60.3941 17.7003L51.5191 23.0011L53.4526 16.1583Z" fill="#DCD6F7"/>
<path d="M129.504 30.7775L133.103 24.645L135.423 34.7189L129.504 30.7775Z" fill="#DCD6F7"/>
<path d="M120.736 19.1894L124.457 13.1301L126.574 23.2486L120.736 19.1894Z" fill="#DCD6F7"/>
<path d="M82.0748 21.7812L87.2436 26.6645H76.9061L82.0748 21.7812Z" fill="#DCD6F7"/>
<path d="M62.6512 28.2542L64.4181 35.1419L55.6744 29.6272L62.6512 28.2542Z" fill="#DCD6F7"/>
</svg>
