<svg width="102" height="169" viewBox="0 0 102 169" fill="none" xmlns="http://www.w3.org/2000/svg">
<path d="M28.7548 42.25C37.8566 24.1568 63.4364 23.4717 73.4936 41.0519L74.179 42.25L90.368 70.5868C97.436 82.9585 100.226 97.316 98.307 111.434L97.0415 120.743C95.2314 134.056 87.5531 145.858 76.1155 152.908L75.5944 153.229C60.1657 162.739 40.4839 161.814 26.0154 150.899V150.899C18.1767 144.985 12.5418 136.619 10.0078 127.132L7.69922 118.489C2.78067 100.074 5.58765 80.4504 15.4712 64.1533L28.7548 42.25V42.25Z" fill="#2D6B75"/>
<path d="M30.1371 45.7562C38.7936 28.5946 63.0599 27.9438 72.6238 44.6167L73.2775 45.7562L88.6504 72.5923C95.3635 84.3113 98.0142 97.9207 96.19 111.302L95.0016 120.02C93.2757 132.68 85.964 143.9 75.0784 150.592L74.586 150.895C59.9478 159.893 41.2941 159.017 27.5637 148.686V148.686C20.1012 143.071 14.734 135.119 12.3179 126.098L10.1454 117.986C5.47182 100.536 8.13761 81.9339 17.5238 66.4986L30.1371 45.7562V45.7562Z" fill="#8AA49D"/>
<ellipse cx="50.6337" cy="101.081" rx="17.8207" ry="32.2057" fill="#D7987D"/>
</svg>
