<svg width="140" height="119" viewBox="0 0 140 119" fill="none" xmlns="http://www.w3.org/2000/svg">
<path d="M132.961 73.3421L140 80.3812C138.778 87.5318 137.3 91.8343 132.961 100.136C119.781 111.923 113.086 114.573 101.399 117.847C45.3697 122.315 11.2539 103.315 1.263 62.8971C-0.0993958 45.6402 3.6115 38.5291 11.2539 33.6057C12.3278 24.4449 12.4992 19.5097 8.5291 12.7157L6.25845 0L11.2539 0L20.7906 9.53675C21.4897 21.1925 21.9757 27.3485 23.9695 33.6057C44.4108 77.1421 64.9545 89.1086 112.071 78.5647L132.961 73.3421Z" fill="#EEBE6F"/>
<path d="M11.2001 12.2641L20.5635 11.2261V9.36669L11.2001 0.03125L6.37943 0.03125L8.30194 10.4476L11.2001 12.2641Z" fill="#D7987D"/>
</svg>
