<svg width="140" height="136" viewBox="0 0 140 136" fill="none" xmlns="http://www.w3.org/2000/svg">
<path d="M123.066 76.1758H17.015C20.0129 89.9353 21.1371 94.0598 30.8803 101.092C40.6235 108.124 103.205 111.132 111.824 101.092C120.443 91.0509 120.817 87.3322 123.066 76.1758Z" fill="#D7987D"/>
<path d="M17.0145 41.8863C29.5763 -10.7907 106.162 -17.0461 122.776 41.8863L17.0145 41.8863Z" fill="#D7987D"/>
<rect x="11.0404" y="45.5586" width="117.513" height="21.8817" fill="#E48985"/>
<rect x="4.31873" y="41.5781" width="131.29" height="4.05217" fill="#8AA49D"/>
<rect x="0.584351" y="67.2148" width="138.584" height="5.67304" fill="#EEBE6F"/>
<rect x="0.584351" y="72.4453" width="138.584" height="4.05217" fill="#2D6B75"/>
<path d="M83.9213 6.63025L88.6174 9.10994L81.1791 11.1779L83.9213 6.63025Z" fill="#E2A890"/>
<path d="M62.9256 1.91544L64.8441 6.86732L57.8728 3.54968L62.9256 1.91544Z" fill="#E2A890"/>
<path d="M67.7495 6.61933L72.4063 9.17204L64.9366 11.1236L67.7495 6.61933Z" fill="#E2A890"/>
<path d="M76.9558 3.62139L76.3605 8.89843L71.7211 2.72748L76.9558 3.62139Z" fill="#E2A890"/>
<path d="M51.6892 11.7663L56.889 12.8448L50.3171 16.8965L51.6892 11.7663Z" fill="#E2A890"/>
<path d="M75.0975 15.3303L76.5184 20.4472L69.9082 16.4584L75.0975 15.3303Z" fill="#E2A890"/>
<path d="M85.8709 16.6407L87.1889 21.785L80.66 17.6645L85.8709 16.6407Z" fill="#E2A890"/>
<path d="M34.4588 21.0835L39.665 22.1309L33.1175 26.2218L34.4588 21.0835Z" fill="#E2A890"/>
<path d="M40.5049 12.0698L45.689 13.2214L39.0609 17.1802L40.5049 12.0698Z" fill="#E2A890"/>
<path d="M97.3026 22.9844L99.9905 18.4043L101.723 25.9279L97.3026 22.9844Z" fill="#E2A890"/>
<path d="M90.7541 14.3324L93.5332 9.80714L95.1142 17.3639L90.7541 14.3324Z" fill="#E2A890"/>
<path d="M61.8806 16.2656L65.7408 19.9126H58.0204L61.8806 16.2656Z" fill="#E2A890"/>
<path d="M47.3745 21.1005L48.6941 26.2444L42.164 22.1259L47.3745 21.1005Z" fill="#E2A890"/>
</svg>
