<svg width="119" height="106" viewBox="0 0 119 106" fill="none" xmlns="http://www.w3.org/2000/svg">
<ellipse cx="59.277" cy="56.2879" rx="59.277" ry="48.7722" fill="#E48985"/>
<path d="M54.0235 2.22656L59.2759 23.6113V2.22656L54.0235 2.22656Z" fill="#2D6B75"/>
<path d="M30.7629 18.7341L59.2759 23.6113M59.2759 23.6113L34.8898 35.992M59.2759 23.6113L77.2842 32.6154M59.2759 23.6113L84.7876 23.6113M59.2759 23.6113L54.0235 2.22656L59.2759 2.22656V23.6113Z" stroke="#2D6B75" stroke-width="3" stroke-linecap="round" stroke-linejoin="round"/>
<path d="M53.8964 2L59.1487 23.3848V2L53.8964 2Z" fill="#8AA49D"/>
<path d="M30.6357 18.5075L59.1487 23.3848M59.1487 23.3848L34.7626 35.7654M59.1487 23.3848L77.157 32.3889M59.1487 23.3848L84.6604 23.3848M59.1487 23.3848L53.8964 2L59.1487 2V23.3848Z" stroke="#8AA49D" stroke-linecap="round" stroke-linejoin="round"/>
</svg>
