<svg width="137" height="227" viewBox="0 0 137 227" fill="none" xmlns="http://www.w3.org/2000/svg">
<path d="M39.0842 56.572C51.2714 32.3455 85.5222 31.4282 98.9887 54.9677L99.9064 56.572L121.583 94.5146C131.047 111.08 134.784 130.304 132.213 149.209L130.519 161.672C128.095 179.498 117.814 195.302 102.499 204.742L101.802 205.172C81.1429 217.905 54.7892 216.666 35.4163 202.051C24.9203 194.132 17.3753 182.93 13.9824 170.227L10.8912 158.654C4.30531 133.998 8.06379 107.722 21.2978 85.9002L39.0842 56.572Z" fill="#4E4C67"/>
<path d="M40.9349 61.2708C52.5258 38.2917 85.018 37.4202 97.8239 59.745L98.6991 61.2708L119.283 97.2039C128.272 112.895 131.821 131.118 129.379 149.036L127.787 160.708C125.476 177.661 115.686 192.684 101.111 201.644L100.451 202.049C80.8508 214.098 55.8739 212.925 37.4892 199.092C27.4971 191.574 20.3104 180.926 17.0754 168.848L14.1663 157.986C7.90851 134.62 11.478 109.712 24.0459 89.0445L40.9349 61.2708Z" fill="#9C98C9"/>
<ellipse cx="68.3789" cy="135.349" rx="23.8616" ry="43.1228" fill="#8B899C"/>
</svg>
